# xmcd
#
# Track frame offsets:
#	150
#	16433
#	34545
#	52461
#	72336
#	95824
#	117166
#	136379
#	156319
#	170817
#	185097
#	199487
#	215828
#	232357
#	252232
#	266382
#	280130
#
# Disc length: 3911 seconds
#
# Revision: 2
# Processed by: cddbd v1.5.2PL0 Copyright (c) Steve Scherf et al.
# Submitted via: audiograbber 1.83.01
#
DISCID=190f4511
DTITLE=Lilian Jackson Braun-George Guidall - The Cat Who Played Brahms Disc 3
DYEAR=1987
DGENRE=Book
TTITLE0=The Cat Who Played Brahms Disc 3 - Track 1
TTITLE1=The Cat Who Played Brahms Disc 3 - Track 2
TTITLE2=The Cat Who Played Brahms Disc 3 - Track 3
TTITLE3=The Cat Who Played Brahms Disc 3 - Track 4
TTITLE4=The Cat Who Played Brahms Disc 3 - Track 5
TTITLE5=The Cat Who Played Brahms Disc 3 - Track 6
TTITLE6=The Cat Who Played Brahms Disc 3 - Track 7
TTITLE7=The Cat Who Played Brahms Disc 3 - Track 8
TTITLE8=The Cat Who Played Brahms Disc 3 - Track 9
TTITLE9=The Cat Who Played Brahms Disc 3 - Track 10
TTITLE10=The Cat Who Played Brahms Disc 3 - Track 11
TTITLE11=The Cat Who Played Brahms Disc 3 - Track 12
TTITLE12=The Cat Who Played Brahms Disc 3 - Track 13
TTITLE13=The Cat Who Played Brahms Disc 3 - Track 14
TTITLE14=The Cat Who Played Brahms Disc 3 - Track 15
TTITLE15=The Cat Who Played Brahms Disc 3 - Track 16
TTITLE16=The Cat Who Played Brahms Disc 3 - Track 17
EXTD=
EXTT0=
EXTT1=
EXTT2=
EXTT3=
EXTT4=
EXTT5=
EXTT6=
EXTT7=
EXTT8=
EXTT9=
EXTT10=
EXTT11=
EXTT12=
EXTT13=
EXTT14=
EXTT15=
EXTT16=
PLAYORDER=
